<svg version="1.1" id="Layer_1" xmlns="http://www.w3.org/2000/svg" xmlns:xlink="http://www.w3.org/1999/xlink" x="0px" y="0px"
	 width="100%" viewBox="0 0 848 688" enable-background="new 0 0 848 688" xml:space="preserve">
<path fill="#000000" opacity="1.000000" stroke="none" 
	d="
M369.474823,534.445007 
	C365.076080,527.853699 358.769440,523.512329 354.022430,517.699829 
	C350.782166,513.732361 347.818512,509.533569 344.083344,505.932251 
	C341.564453,503.503723 341.627563,499.939178 341.630890,496.551636 
	C341.664520,462.386353 341.529968,428.220123 341.781830,394.056671 
	C341.819122,389.000214 340.041077,385.448395 336.613159,382.338593 
	C324.782013,371.605469 314.164398,359.739319 303.713074,347.688934 
	C295.150696,337.816528 285.918518,328.514587 277.551208,318.485870 
	C263.854370,302.069366 250.214279,285.597443 237.611740,268.289673 
	C232.555771,261.346039 227.091171,254.617004 222.240784,247.584518 
	C216.827652,239.736160 211.307709,231.878342 206.434662,223.627899 
	C200.374207,213.367142 194.181488,203.182907 187.926773,193.039078 
	C183.838181,186.408234 184.126114,182.755600 190.063492,177.996490 
	C201.966187,168.455887 213.514633,158.473480 224.484177,147.921356 
	C233.765686,138.993042 243.574539,130.675613 252.930222,121.848122 
	C257.012207,117.996582 261.496643,114.575066 265.689545,110.836281 
	C268.248199,108.554749 270.470642,109.996544 272.384583,111.445435 
	C284.643951,120.726074 296.843201,130.084839 308.967712,139.544708 
	C323.621033,150.977646 337.183533,163.628098 350.882019,176.061722 
	C364.469421,188.394577 377.391449,201.562485 389.768341,215.192123 
	C405.022980,231.990646 420.584320,248.518234 435.536835,265.580261 
	C442.401367,273.413269 448.291107,282.100586 455.634216,289.574341 
	C457.614288,291.589661 459.702637,292.413239 462.565735,292.778625 
	C471.048309,293.861206 479.691864,293.907410 487.984955,296.345062 
	C488.459137,296.484436 488.978638,296.632629 489.454651,296.578705 
	C500.635193,295.311737 511.465515,298.891479 522.623474,298.923828 
	C529.873535,298.944824 537.356262,300.109039 544.512878,302.163300 
	C547.945251,303.148560 551.498596,302.821808 554.943542,302.577393 
	C565.475098,301.830200 573.116943,306.076813 579.707336,314.264069 
	C588.014832,324.584381 597.377563,334.050995 606.188660,343.971466 
	C615.865234,354.866364 624.993347,366.288635 635.176453,376.681580 
	C644.458313,386.154755 653.046509,396.251343 661.675415,406.224548 
	C672.191162,418.378479 684.148987,429.255188 693.635620,442.290771 
	C695.344971,444.639587 698.267395,446.080750 699.184265,449.430847 
	C693.932129,452.024078 689.944946,448.276978 686.073120,446.734253 
	C675.541504,442.537933 665.464722,437.216034 655.096497,432.589447 
	C644.084534,427.675598 632.976746,422.971466 621.846741,418.329437 
	C616.651367,416.162598 611.726990,413.424042 606.357483,411.589752 
	C602.714417,410.345245 599.162720,409.863037 595.620361,410.907501 
	C591.397095,412.152679 587.145508,412.832275 582.838501,412.321350 
	C572.628723,411.110260 562.801575,414.631195 552.672180,414.497681 
	C548.715515,414.445557 547.232300,417.420746 549.109741,420.902252 
	C551.543823,425.415771 553.893738,430.022247 556.819275,434.212097 
	C561.260376,440.572601 559.783142,442.192383 555.023010,446.565735 
	C547.960144,453.054871 540.091553,458.698944 533.371338,465.622742 
	C530.815857,468.255646 528.755554,466.689148 526.995544,464.887268 
	C521.187988,458.941498 515.026123,453.374512 509.690277,446.921021 
	C501.870178,437.462891 493.480591,428.473999 485.290619,419.323669 
	C471.133759,403.506683 456.977722,387.688751 442.754517,371.931519 
	C434.853455,363.178345 426.673859,354.672943 418.898682,345.811188 
	C414.621490,340.936279 410.447968,336.021698 405.008087,331.634888 
	C401.315765,335.243774 396.538300,337.339294 393.758392,341.999573 
	C392.285950,344.468018 392.245026,346.107269 394.333344,348.071167 
	C404.266144,357.412262 412.665222,368.206055 421.733459,378.315552 
	C430.234558,387.792786 439.038727,397.077728 447.362762,406.760254 
	C457.572510,418.636169 467.833649,430.544983 478.797058,441.816223 
	C488.341949,451.629089 496.921661,462.380524 505.936798,472.709412 
	C506.702820,473.587036 507.513489,474.428833 508.342072,475.248230 
	C514.825134,481.660065 515.125488,483.464081 507.883423,488.884521 
	C499.760895,494.963928 493.286652,502.915833 484.710419,508.440308 
	C482.883270,509.617310 481.588348,510.055206 479.878815,508.760162 
	C473.679504,504.063843 467.413910,499.451385 461.310028,494.634064 
	C457.544556,491.662292 455.550018,491.867706 453.961182,496.439758 
	C452.500854,500.641968 451.240570,505.008331 450.662567,509.403687 
	C449.264343,520.035522 446.576233,530.389221 444.543457,540.881287 
	C442.933319,549.191895 446.233459,556.787170 448.898254,564.452209 
	C452.575897,575.030701 455.495972,585.851624 459.124847,596.460999 
	C462.256134,605.615417 464.864807,614.963928 468.000977,624.137207 
	C470.069855,630.188721 471.800903,636.355042 473.756653,642.446350 
	C474.316315,644.189453 474.566467,645.830383 472.688416,646.774841 
	C470.903931,647.672241 469.802338,646.127808 468.991028,645.013367 
	C461.225403,634.346863 451.148621,625.774353 442.641785,615.772400 
	C434.365601,606.041626 425.875275,596.492310 417.184418,587.111450 
	C401.167542,569.822876 385.514191,552.197510 369.474823,534.445007 
z"/>
<path fill="#000000" opacity="1.000000" stroke="none" 
	d="
M182.925110,172.114319 
	C179.285217,175.088867 177.407043,174.173798 175.524704,170.326416 
	C167.526840,153.979416 159.397430,137.699127 152.734314,120.743835 
	C148.897049,110.979355 145.938919,100.900589 142.441101,91.028633 
	C138.571075,80.106201 136.704666,68.701401 133.177460,57.720535 
	C132.084091,54.316700 131.942810,50.553467 131.732590,46.933468 
	C131.484970,42.669510 134.011002,40.716248 138.031052,42.172073 
	C152.117752,47.273472 166.420410,51.825367 180.052338,58.114281 
	C189.657608,62.545551 199.451721,66.660065 208.697174,71.758110 
	C224.741776,80.605255 240.850159,89.414413 255.738754,100.186600 
	C258.363770,102.085846 258.909576,103.769096 255.837769,106.779190 
	C247.757080,114.697563 238.846008,121.643059 230.625809,129.384232 
	C215.173691,143.935852 199.409439,158.152496 182.925110,172.114319 
z"/>
</svg>